<svg width="658" height="479" viewBox="0 0 658 479" fill="none" xmlns="http://www.w3.org/2000/svg">
<path fill-rule="evenodd" clip-rule="evenodd" d="M446.733 0.41333C454.551 0.41333 461.665 7.52787 461.665 15.3453V90.944H642.265C650.083 90.944 657.197 98.0585 657.197 105.876V375.143C657.197 382.96 650.083 390.075 642.265 390.075H577.629L577.864 463.34C577.942 469.449 573.791 475.21 568.062 477.34C562.332 479.47 555.426 477.819 551.494 473.142L481.024 390.074H210.358C202.54 390.074 195.426 382.96 195.426 375.142V299.543H176.062L105.592 382.611C101.618 387.117 94.884 388.69 89.2589 386.58C83.6338 384.471 79.4933 378.82 79.4568 372.815L79.6911 299.55H15.0551C7.2374 299.55 0.123138 292.435 0.123138 284.618V15.3509C0.123138 7.5332 7.23767 0.418935 15.0551 0.418935H446.722L446.733 0.41333ZM431.801 30.2773H30.0013V269.677H94.6373C102.455 269.677 109.569 276.792 109.569 284.609L109.335 331.973L157.638 275.041C160.424 271.703 164.726 269.687 169.07 269.677H431.803L431.801 30.2773Z" fill="#222"/>
<path fill-rule="evenodd" clip-rule="evenodd" d="M226.467 104.16C251.029 104.16 271.269 124.395 271.269 148.963C271.269 173.525 251.035 193.765 226.467 193.765C201.904 193.765 181.664 173.531 181.664 148.963C181.664 124.4 201.899 104.16 226.467 104.16Z" fill="#222"/>
<path fill-rule="evenodd" clip-rule="evenodd" d="M103.613 104.16C128.14 104.16 148.416 124.348 148.416 148.963C148.416 173.572 128.145 193.765 103.613 193.765C79.0507 193.765 58.8107 173.531 58.8107 148.963C58.8107 124.4 79.0453 104.16 103.613 104.16Z" fill="#222"/>
<path fill-rule="evenodd" clip-rule="evenodd" d="M349.387 104.16C373.949 104.16 394.189 124.395 394.189 148.963C394.189 173.525 373.955 193.765 349.387 193.765C324.824 193.765 304.584 173.531 304.584 148.963C304.584 124.4 324.819 104.16 349.387 104.16Z" fill="#222"/>
</svg>
